<svg xmlns="http://www.w3.org/2000/svg" viewBox="0 0 128 128" width="128" height="128">
  <defs>
    <linearGradient id="gradient" x1="0%" y1="0%" x2="100%" y2="100%">
      <stop offset="0%" style="stop-color:#4285f4;stop-opacity:1" />
      <stop offset="100%" style="stop-color:#34a853;stop-opacity:1" />
    </linearGradient>
  </defs>
  
  <!-- Background circle -->
  <circle cx="64" cy="64" r="60" fill="url(#gradient)" stroke="#ffffff" stroke-width="4"/>
  
  <!-- Chat bubble icon -->
  <g fill="#ffffff">
    <!-- Main bubble -->
    <path d="M32 40 C32 36, 36 32, 40 32 L88 32 C92 32, 96 36, 96 40 L96 64 C96 68, 92 72, 88 72 L52 72 L36 84 L36 72 C32 72, 32 68, 32 64 Z"/>
    
    <!-- Text lines inside bubble -->
    <rect x="44" y="44" width="32" height="4" rx="2" fill="#4285f4"/>
    <rect x="44" y="52" width="24" height="4" rx="2" fill="#4285f4"/>
    <rect x="44" y="60" width="28" height="4" rx="2" fill="#4285f4"/>
  </g>
  
  <!-- Small dots indicating saved prompts -->
  <circle cx="104" cy="40" r="6" fill="#ea4335"/>
  <circle cx="112" cy="56" r="4" fill="#fbbc04"/>
  <circle cx="108" cy="72" r="5" fill="#34a853"/>
</svg>
